<svg width="24" height="24" viewBox="0 0 24 24" fill="none" xmlns="http://www.w3.org/2000/svg">
<path d="M18 13V13.75H18.75V13H18ZM17.7282 6.71121L17.182 7.22524V7.22524L17.7282 6.71121ZM13.5902 2.31464L13.0441 2.82866V2.82866L13.5902 2.31464ZM2.75 5C2.75 3.75736 3.75736 2.75 5 2.75V1.25C2.92893 1.25 1.25 2.92893 1.25 5H2.75ZM2.75 19V5H1.25V19H2.75ZM5 21.25C3.75736 21.25 2.75 20.2426 2.75 19H1.25C1.25 21.0711 2.92893 22.75 5 22.75V21.25ZM10.358 21.25H5V22.75H10.358V21.25ZM10.358 21.25C10.0222 21.25 9.75 20.9778 9.75 20.642H8.25C8.25 21.8062 9.1938 22.75 10.358 22.75V21.25ZM9.75 20.642V14.358H8.25V20.642H9.75ZM9.75 14.358C9.75 14.0222 10.0222 13.75 10.358 13.75V12.25C9.19379 12.25 8.25 13.1938 8.25 14.358H9.75ZM10.358 13.75H18V12.25H10.358V13.75ZM17.25 7.39658V13H18.75V7.39658H17.25ZM17.182 7.22524C17.2257 7.27161 17.25 7.33289 17.25 7.39658H18.75C18.75 6.95079 18.5799 6.52181 18.2743 6.19719L17.182 7.22524ZM13.0441 2.82866L17.182 7.22524L18.2743 6.19719L14.1364 1.80061L13.0441 2.82866ZM12.862 2.75C12.931 2.75 12.9969 2.77846 13.0441 2.82866L14.1364 1.80061C13.8057 1.44924 13.3446 1.25 12.862 1.25V2.75ZM5 2.75H12.862V1.25H5V2.75Z" fill="#64748B"/>
<path d="M13 2.24142C13 2.15233 13.1077 2.10771 13.1707 2.17071L17.8293 6.82929C17.8923 6.89229 17.8477 7 17.7586 7H16C14.3431 7 13 5.65685 13 4V2.24142Z" stroke="#64748B" stroke-width="1.5"/>
<rect x="9" y="13" width="13" height="9" rx="1.35802" stroke="#64748B" stroke-width="1.5"/>
<path d="M9 16L22 16" stroke="#64748B" stroke-width="1.5" stroke-linecap="round"/>
<path d="M12 19H14" stroke="#64748B" stroke-width="1.5" stroke-linecap="round"/>
</svg>
