<svg width="18" height="18" viewBox="0 0 18 18" fill="none" xmlns="http://www.w3.org/2000/svg">
<path d="M6.24984 1.6665H2.58317C2.07691 1.6665 1.6665 2.07691 1.6665 2.58317V6.24984C1.6665 6.7561 2.07691 7.1665 2.58317 7.1665H6.24984C6.7561 7.1665 7.1665 6.7561 7.1665 6.24984V2.58317C7.1665 2.07691 6.7561 1.6665 6.24984 1.6665Z" stroke="#64748B" stroke-width="1.5" stroke-linecap="round" stroke-linejoin="round"/>
<path d="M15.4165 1.6665H11.7498C11.2436 1.6665 10.8332 2.07691 10.8332 2.58317V6.24984C10.8332 6.7561 11.2436 7.1665 11.7498 7.1665H15.4165C15.9228 7.1665 16.3332 6.7561 16.3332 6.24984V2.58317C16.3332 2.07691 15.9228 1.6665 15.4165 1.6665Z" stroke="#64748B" stroke-width="1.5" stroke-linecap="round" stroke-linejoin="round"/>
<path d="M6.24984 10.8332H2.58317C2.07691 10.8332 1.6665 11.2436 1.6665 11.7498V15.4165C1.6665 15.9228 2.07691 16.3332 2.58317 16.3332H6.24984C6.7561 16.3332 7.1665 15.9228 7.1665 15.4165V11.7498C7.1665 11.2436 6.7561 10.8332 6.24984 10.8332Z" stroke="#64748B" stroke-width="1.5" stroke-linecap="round" stroke-linejoin="round"/>
<path d="M15.4165 10.8332H11.7498C11.2436 10.8332 10.8332 11.2436 10.8332 11.7498V15.4165C10.8332 15.9228 11.2436 16.3332 11.7498 16.3332H15.4165C15.9228 16.3332 16.3332 15.9228 16.3332 15.4165V11.7498C16.3332 11.2436 15.9228 10.8332 15.4165 10.8332Z" stroke="#64748B" stroke-width="1.5" stroke-linecap="round" stroke-linejoin="round"/>
</svg>
