<svg width="18" height="18" viewBox="0 0 18 18" fill="none" xmlns="http://www.w3.org/2000/svg">
<g clip-path="url(#clip0_608_384)">
<path d="M6.24984 1.66602H2.58317C2.07691 1.66602 1.6665 2.07643 1.6665 2.58269V6.24936C1.6665 6.75562 2.07691 7.16602 2.58317 7.16602H6.24984C6.7561 7.16602 7.1665 6.75562 7.1665 6.24936V2.58269C7.1665 2.07643 6.7561 1.66602 6.24984 1.66602Z" stroke="#2563EB" stroke-width="1.5" stroke-linecap="round" stroke-linejoin="round"/>
<path d="M15.4165 1.66602H11.7498C11.2436 1.66602 10.8332 2.07643 10.8332 2.58269V6.24936C10.8332 6.75562 11.2436 7.16602 11.7498 7.16602H15.4165C15.9228 7.16602 16.3332 6.75562 16.3332 6.24936V2.58269C16.3332 2.07643 15.9228 1.66602 15.4165 1.66602Z" stroke="#2563EB" stroke-width="1.5" stroke-linecap="round" stroke-linejoin="round"/>
<path d="M6.24984 10.834H2.58317C2.07691 10.834 1.6665 11.2444 1.6665 11.7506V15.4173C1.6665 15.9236 2.07691 16.334 2.58317 16.334H6.24984C6.7561 16.334 7.1665 15.9236 7.1665 15.4173V11.7506C7.1665 11.2444 6.7561 10.834 6.24984 10.834Z" stroke="#2563EB" stroke-width="1.5" stroke-linecap="round" stroke-linejoin="round"/>
<path d="M15.4165 10.834H11.7498C11.2436 10.834 10.8332 11.2444 10.8332 11.7506V15.4173C10.8332 15.9236 11.2436 16.334 11.7498 16.334H15.4165C15.9228 16.334 16.3332 15.9236 16.3332 15.4173V11.7506C16.3332 11.2444 15.9228 10.834 15.4165 10.834Z" stroke="#2563EB" stroke-width="1.5" stroke-linecap="round" stroke-linejoin="round"/>
</g>
<defs>
<clipPath id="clip0_608_384">
<rect width="18" height="18" fill="white"/>
</clipPath>
</defs>
</svg>
