<svg width="16" height="16" viewBox="0 0 16 16" fill="none" xmlns="http://www.w3.org/2000/svg">
<path d="M8.5 1C8.5 0.723858 8.27614 0.5 8 0.5C7.72386 0.5 7.5 0.723858 7.5 1L8.5 1ZM7.5 9.55556C7.5 9.8317 7.72386 10.0556 8 10.0556C8.27614 10.0556 8.5 9.8317 8.5 9.55556H7.5ZM11.4647 8.35355C11.6599 8.15829 11.6599 7.84171 11.4647 7.64645C11.2694 7.45118 10.9528 7.45118 10.7576 7.64645L11.4647 8.35355ZM8.54997 10.5611L8.19642 10.2076L8.54997 10.5611ZM7.45003 10.5611L7.80358 10.2076L7.80358 10.2076L7.45003 10.5611ZM5.24244 7.64645C5.04718 7.45118 4.7306 7.45118 4.53534 7.64645C4.34007 7.84171 4.34007 8.15829 4.53534 8.35355L5.24244 7.64645ZM1.5 11.1111C1.5 10.835 1.27614 10.6111 1 10.6111C0.723858 10.6111 0.5 10.835 0.5 11.1111H1.5ZM15.5 11.1111C15.5 10.835 15.2761 10.6111 15 10.6111C14.7239 10.6111 14.5 10.835 14.5 11.1111H15.5ZM13.726 14.7457L13.499 14.3002H13.499L13.726 14.7457ZM14.7457 13.726L15.1912 13.953L14.7457 13.726ZM1.25432 13.726L0.808815 13.953L1.25432 13.726ZM2.27402 14.7457L2.04703 15.1912H2.04703L2.27402 14.7457ZM7.5 1L7.5 9.55556H8.5L8.5 1L7.5 1ZM10.7576 7.64645L8.19642 10.2076L8.90353 10.9147L11.4647 8.35355L10.7576 7.64645ZM7.80358 10.2076L5.24244 7.64645L4.53534 8.35355L7.09648 10.9147L7.80358 10.2076ZM8.19642 10.2076C8.08794 10.3161 7.91206 10.3161 7.80358 10.2076L7.09647 10.9147C7.59548 11.4137 8.40452 11.4137 8.90353 10.9147L8.19642 10.2076ZM0.5 11.1111V11.2667H1.5V11.1111H0.5ZM4.73333 15.5H11.2667V14.5H4.73333V15.5ZM15.5 11.2667V11.1111H14.5V11.2667H15.5ZM11.2667 15.5C11.9118 15.5 12.4257 15.5004 12.8399 15.4665C13.2599 15.4322 13.6212 15.3602 13.953 15.1912L13.499 14.3002C13.3317 14.3854 13.1166 14.4406 12.7585 14.4699C12.3945 14.4996 11.9283 14.5 11.2667 14.5V15.5ZM14.5 11.2667C14.5 11.9283 14.4996 12.3945 14.4699 12.7585C14.4406 13.1166 14.3854 13.3317 14.3002 13.499L15.1912 13.953C15.3602 13.6212 15.4322 13.2599 15.4665 12.8399C15.5004 12.4257 15.5 11.9118 15.5 11.2667H14.5ZM13.953 15.1912C14.4861 14.9195 14.9195 14.4861 15.1912 13.953L14.3002 13.499C14.1244 13.8439 13.8439 14.1244 13.499 14.3002L13.953 15.1912ZM0.5 11.2667C0.5 11.9118 0.499611 12.4257 0.53345 12.8399C0.567766 13.2599 0.639755 13.6212 0.808815 13.953L1.69982 13.499C1.61456 13.3317 1.55939 13.1166 1.53013 12.7585C1.50039 12.3945 1.5 11.9283 1.5 11.2667H0.5ZM4.73333 14.5C4.07169 14.5 3.60553 14.4996 3.24152 14.4699C2.88335 14.4406 2.66835 14.3854 2.50102 14.3002L2.04703 15.1912C2.37882 15.3602 2.74008 15.4322 3.16009 15.4665C3.57426 15.5004 4.08819 15.5 4.73333 15.5V14.5ZM0.808815 13.953C1.08046 14.4861 1.5139 14.9195 2.04703 15.1912L2.50102 14.3002C2.15605 14.1244 1.87559 13.8439 1.69982 13.499L0.808815 13.953Z" fill="#6B7789"/>
</svg>
