<svg width="20" height="20" viewBox="0 0 20 20" fill="none" xmlns="http://www.w3.org/2000/svg">
<g clip-path="url(#clip0_608_391)">
<mask id="mask0_608_391" style="mask-type:luminance" maskUnits="userSpaceOnUse" x="0" y="0" width="20" height="20">
<path d="M20 0H0V20H20V0Z" fill="white"/>
</mask>
<g mask="url(#mask0_608_391)">
<path d="M10 0C8.02219 0 6.08879 0.58649 4.4443 1.6853C2.79981 2.78412 1.51809 4.3459 0.761209 6.17317C0.00433302 8.00043 -0.193701 10.0111 0.192152 11.9509C0.578004 13.8907 1.53041 15.6725 2.92894 17.0711C4.32746 18.4696 6.10929 19.422 8.0491 19.8079C9.98891 20.1937 11.9996 19.9957 13.8268 19.2388C15.6541 18.4819 17.2159 17.2002 18.3147 15.5557C19.4135 13.9112 20 11.9778 20 10C19.9971 7.34872 18.9426 4.80684 17.0679 2.9321C15.1932 1.05736 12.6513 0.00286757 10 0ZM10 18.3333C8.35183 18.3333 6.74066 17.8446 5.37025 16.9289C3.99984 16.0132 2.93174 14.7117 2.30101 13.189C1.67028 11.6663 1.50525 9.99076 1.82679 8.37425C2.14834 6.75774 2.94201 5.27288 4.10745 4.10744C5.27289 2.94201 6.75774 2.14833 8.37425 1.82679C9.99076 1.50525 11.6663 1.67027 13.189 2.301C14.7118 2.93173 16.0132 3.99984 16.9289 5.37025C17.8446 6.74066 18.3333 8.35182 18.3333 10C18.3309 12.2094 17.4522 14.3276 15.8899 15.8899C14.3276 17.4522 12.2094 18.3309 10 18.3333Z" fill="#2563EB"/>
<path d="M10.5973 4.22C10.1168 4.13244 9.62285 4.15157 9.1505 4.27604C8.67815 4.4005 8.23893 4.62725 7.86392 4.94025C7.4889 5.25326 7.18726 5.64485 6.98035 6.08733C6.77343 6.52981 6.66629 7.01236 6.6665 7.50083C6.6665 7.72185 6.7543 7.93381 6.91058 8.09009C7.06686 8.24637 7.27882 8.33417 7.49984 8.33417C7.72085 8.33417 7.93281 8.24637 8.08909 8.09009C8.24537 7.93381 8.33317 7.72185 8.33317 7.50083C8.33296 7.25565 8.38685 7.01343 8.491 6.79147C8.59514 6.5695 8.74698 6.37324 8.93569 6.21669C9.12439 6.06014 9.34531 5.94716 9.58269 5.88579C9.82007 5.82442 10.0681 5.81619 10.309 5.86167C10.6382 5.92557 10.9409 6.08616 11.1784 6.32291C11.4159 6.55966 11.5774 6.86184 11.6423 7.19083C11.7079 7.53617 11.6626 7.8934 11.513 8.21145C11.3633 8.5295 11.1169 8.79209 10.809 8.96167C10.2991 9.25706 9.87783 9.68376 9.58894 10.1973C9.30006 10.7109 9.15418 11.2925 9.1665 11.8816V12.5008C9.1665 12.7218 9.2543 12.9338 9.41058 13.0901C9.56686 13.2463 9.77882 13.3341 9.99984 13.3341C10.2209 13.3341 10.4328 13.2463 10.5891 13.0901C10.7454 12.9338 10.8332 12.7218 10.8332 12.5008V11.8816C10.8227 11.5916 10.8888 11.304 11.0249 11.0477C11.1609 10.7914 11.3621 10.5755 11.6082 10.4216C12.2119 10.09 12.6981 9.57955 12.9999 8.96034C13.3017 8.34113 13.4042 7.64363 13.2934 6.96377C13.1826 6.28391 12.8639 5.65508 12.3811 5.16375C11.8983 4.67242 11.2752 4.34272 10.5973 4.22Z" fill="#2563EB"/>
<path d="M10.8332 14.9994C10.8332 14.5391 10.4601 14.166 9.99984 14.166C9.5396 14.166 9.1665 14.5391 9.1665 14.9994C9.1665 15.4596 9.5396 15.8327 9.99984 15.8327C10.4601 15.8327 10.8332 15.4596 10.8332 14.9994Z" fill="#2563EB"/>
</g>
</g>
<defs>
<clipPath id="clip0_608_391">
<rect width="20" height="20" fill="white"/>
</clipPath>
</defs>
</svg>
