<svg width="257" height="42" viewBox="0 0 257 42" fill="none" xmlns="http://www.w3.org/2000/svg">
<rect width="40" height="40" rx="10" fill="white"/>
<path fill-rule="evenodd" clip-rule="evenodd" d="M29.0403 29.6494C29.4692 28.684 29.637 27.6228 29.5269 26.5722C29.4167 25.5215 29.0325 24.5182 28.4126 23.6627C27.6004 22.2861 27.3681 20.6433 27.7666 19.0953C28.1652 17.5474 29.162 16.2211 30.538 15.4078C31.174 15.0324 31.8741 14.7785 32.6028 14.6589C32.173 15.6242 32.0047 16.6855 32.1149 17.7363C32.2251 18.7872 32.6098 19.7905 33.2305 20.6456C34.0431 22.0193 34.278 23.6591 33.8837 25.2057C33.4893 26.7522 32.4979 28.0794 31.1267 28.8962C30.4824 29.2712 29.7755 29.5264 29.0403 29.6494Z" fill="#073854"/>
<path fill-rule="evenodd" clip-rule="evenodd" d="M32.602 14.6586C31.8163 13.9527 30.8589 13.4656 29.8257 13.2461C28.7926 13.0265 27.7198 13.0822 26.7149 13.4076C25.7594 13.6228 24.7658 13.6016 23.8203 13.346C22.8747 13.0903 22.0059 12.6079 21.289 11.9405C20.5721 11.273 20.0288 10.4408 19.7063 9.51595C19.3838 8.59109 19.2918 7.60152 19.4383 6.63306C20.2236 7.33969 21.181 7.82728 22.2143 8.04687C23.2477 8.26646 24.3206 8.21031 25.3254 7.88407C26.2807 7.67101 27.2735 7.6937 28.218 7.95015C29.1626 8.20661 30.0305 8.68913 30.7468 9.35605C31.4632 10.023 32.0064 10.8542 32.3297 11.7781C32.6529 12.7019 32.7464 13.6905 32.602 14.6586Z" fill="#0D73AA"/>
<path fill-rule="evenodd" clip-rule="evenodd" d="M19.4392 6.63332C18.52 7.15946 17.7558 7.91875 17.2238 8.83457C16.6918 9.75039 16.4108 10.7903 16.4091 11.8495C16.3342 12.6374 16.1048 13.4029 15.734 14.1022C15.3632 14.8014 14.8583 15.4208 14.2481 15.9249C13.6379 16.429 12.9343 16.8079 12.1776 17.04C11.4209 17.2722 10.6259 17.3529 9.83802 17.2777C9.10302 17.2051 8.3873 16.9998 7.72559 16.6717C8.45591 16.249 9.08989 15.6784 9.58695 14.9965C10.3358 13.968 10.7376 12.7278 10.7341 11.4555C10.8864 9.86385 11.6647 8.39782 12.8977 7.37987C14.1308 6.36191 15.7177 5.87539 17.3094 6.02729C18.0503 6.09843 18.7719 6.30378 19.4392 6.63332Z" fill="#0BA4A5"/>
<path fill-rule="evenodd" clip-rule="evenodd" d="M7.7509 16.6719C7.97022 17.708 8.45916 18.668 9.16831 19.4546C9.87745 20.2413 10.7817 20.8269 11.7896 21.1521C12.6875 21.5408 13.4772 22.1422 14.0905 22.9044C14.7039 23.6667 15.1224 24.5668 15.3099 25.527C15.4974 26.4872 15.4483 27.4786 15.1668 28.4156C14.8853 29.3526 14.3799 30.2069 13.6943 30.9048C13.5218 30.0792 13.175 29.3 12.677 28.6192C11.9221 27.5947 10.8609 26.8367 9.6469 26.4549C8.74414 26.067 7.94993 25.4642 7.33348 24.6991C6.71702 23.934 6.29702 23.0297 6.11007 22.0651C5.92312 21.1005 5.9749 20.1048 6.26089 19.1648C6.54689 18.2247 7.05841 17.3689 7.7509 16.6719Z" fill="#D8425C"/>
<path fill-rule="evenodd" clip-rule="evenodd" d="M13.6772 30.896C14.7284 31.008 15.7904 30.8408 16.7564 30.4114C17.7223 29.9821 18.5579 29.3056 19.1791 28.4503C19.826 27.717 20.6416 27.1522 21.5556 26.8045C22.4695 26.4569 23.4544 26.3369 24.4251 26.4549C25.3958 26.573 26.3232 26.9255 27.1272 27.482C27.9312 28.0385 28.5877 28.7824 29.04 29.6493C27.9892 29.5391 26.9279 29.7075 25.9629 30.1376C24.9978 30.5677 24.163 31.2443 23.5425 32.0994C22.8948 32.8325 22.0785 33.397 21.1641 33.7443C20.2496 34.0915 19.2643 34.2111 18.2933 34.0927C17.3223 33.9742 16.3947 33.6213 15.5905 33.0644C14.7863 32.5075 14.1297 31.7633 13.6772 30.896Z" fill="#EBAD48"/>
<path opacity="0.4" d="M62.34 40.2556H61.4679C61.4311 40.2523 61.3962 40.2374 61.3683 40.2131C61.3404 40.1889 61.3208 40.1564 61.3124 40.1204L60.9271 38.5452H59.0343L58.6489 40.1204C58.6405 40.1564 58.621 40.1889 58.5931 40.2131C58.5652 40.2374 58.5303 40.2523 58.4934 40.2556H57.6214C57.6031 40.2574 57.5846 40.2555 57.567 40.25C57.5495 40.2445 57.5333 40.2354 57.5193 40.2234C57.5054 40.2114 57.4941 40.1966 57.4861 40.1801C57.478 40.1635 57.4735 40.1455 57.4727 40.1271V40.0798L58.8247 34.9083C58.9239 34.6036 59.1393 34.3505 59.4241 34.2036C59.7088 34.0568 60.04 34.0282 60.3457 34.1241C60.5285 34.1833 60.6944 34.2853 60.8297 34.4217C60.9649 34.5582 61.0656 34.725 61.1231 34.9083L62.4752 40.0798V40.1204C62.4752 40.1381 62.4717 40.1557 62.4649 40.1721C62.4581 40.1885 62.4481 40.2034 62.4356 40.216C62.423 40.2285 62.4081 40.2385 62.3917 40.2453C62.3753 40.2521 62.3577 40.2556 62.34 40.2556ZM60.1294 35.1516C60.1294 35.0502 60.0753 35.0232 59.9942 35.0232C59.9131 35.0232 59.8928 35.0232 59.8658 35.1516L59.2709 37.6056H60.7243L60.1294 35.1516Z" fill="white"/>
<path opacity="0.4" d="M68.5051 40.255H67.6669C67.5608 40.2738 67.4515 40.2542 67.3586 40.1997C67.2656 40.1452 67.1952 40.0593 67.1599 39.9575L65.3279 35.942C65.3279 35.9241 65.3207 35.9069 65.3081 35.8942C65.2954 35.8815 65.2782 35.8744 65.2603 35.8744C65.2603 35.8744 65.2129 35.8744 65.2129 35.942V40.1198C65.2148 40.1399 65.2125 40.1601 65.2063 40.1793C65.2001 40.1985 65.1901 40.2162 65.1768 40.2314C65.1635 40.2465 65.1473 40.2589 65.1291 40.2676C65.1109 40.2763 65.0911 40.2812 65.071 40.282H64.3341C64.3128 40.282 64.2917 40.2778 64.272 40.2697C64.2524 40.2615 64.2345 40.2496 64.2194 40.2345C64.2043 40.2194 64.1924 40.2016 64.1842 40.1819C64.1761 40.1622 64.1719 40.1411 64.1719 40.1198V34.475C64.1719 34.389 64.2061 34.3064 64.2669 34.2456C64.3278 34.1847 64.4103 34.1506 64.4964 34.1506H65.3955C65.5645 34.1506 65.6591 34.1979 65.7605 34.4074L67.6804 38.6528C67.6804 38.6708 67.6875 38.688 67.7002 38.7006C67.7129 38.7133 67.7301 38.7204 67.748 38.7204C67.748 38.7204 67.7886 38.7204 67.7886 38.6528V34.306C67.7877 34.2859 67.7908 34.2659 67.7979 34.247C67.8049 34.2282 67.8158 34.211 67.8297 34.1965C67.8436 34.1819 67.8603 34.1704 67.8788 34.1625C67.8973 34.1546 67.9172 34.1505 67.9373 34.1506H68.6539C68.6734 34.1496 68.6929 34.1526 68.7113 34.1592C68.7297 34.1659 68.7466 34.1761 68.7611 34.1893C68.7755 34.2025 68.7872 34.2184 68.7955 34.2361C68.8038 34.2538 68.8085 34.273 68.8094 34.2925V39.944C68.8112 39.9872 68.8043 40.0303 68.7893 40.0708C68.7742 40.1113 68.7512 40.1484 68.7216 40.1798C68.692 40.2113 68.6564 40.2366 68.6169 40.2541C68.5774 40.2717 68.5348 40.2812 68.4916 40.282L68.5051 40.255Z" fill="white"/>
<path opacity="0.4" d="M75.4073 40.2553H74.5285C74.4916 40.252 74.4567 40.2372 74.4288 40.2129C74.4009 40.1886 74.3814 40.1562 74.373 40.1201L73.9944 38.545H72.0948L71.7162 40.1201C71.7069 40.1557 71.6871 40.1877 71.6594 40.2118C71.6317 40.2359 71.5973 40.2511 71.5608 40.2553H70.6819C70.6636 40.2572 70.6451 40.2553 70.6276 40.2498C70.6101 40.2442 70.5938 40.2352 70.5799 40.2232C70.566 40.2111 70.5547 40.1964 70.5466 40.1798C70.5386 40.1633 70.534 40.1453 70.5332 40.1269V40.0796L71.8852 34.908C71.983 34.6039 72.1971 34.3508 72.4808 34.2039C72.7645 34.057 73.0947 34.0282 73.3995 34.1239C73.5827 34.1836 73.7493 34.2857 73.8856 34.422C74.0218 34.5583 74.124 34.7248 74.1837 34.908L75.5357 40.0796V40.1201C75.5367 40.1376 75.534 40.155 75.528 40.1714C75.5219 40.1877 75.5126 40.2027 75.5006 40.2154C75.4886 40.228 75.4741 40.2381 75.4581 40.245C75.442 40.2518 75.4247 40.2554 75.4073 40.2553ZM73.19 35.1514C73.19 35.05 73.1426 35.023 73.0615 35.023C72.9804 35.023 72.9533 35.023 72.9263 35.1514L72.3314 37.6054H73.7984L73.19 35.1514Z" fill="white"/>
<path opacity="0.4" d="M80.3965 40.2082C79.9339 40.2839 79.466 40.3224 78.9972 40.3231C77.9223 40.3231 77.0908 40.0324 77.0908 38.6263V34.2863C77.0908 34.2432 77.1079 34.202 77.1383 34.1715C77.1688 34.1411 77.21 34.124 77.2531 34.124H78.0711C78.1141 34.124 78.1553 34.1411 78.1858 34.1715C78.2162 34.202 78.2333 34.2432 78.2333 34.2863V38.6263C78.2333 39.1806 78.4023 39.3023 78.9093 39.3023H80.4236C80.4684 39.3023 80.5114 39.3201 80.5431 39.3518C80.5748 39.3835 80.5926 39.4265 80.5926 39.4713V40.0257C80.5588 40.1541 80.5588 40.1879 80.3965 40.2082Z" fill="white"/>
<path opacity="0.4" d="M85.6969 34.3135L84.4462 37.1798C84.4056 37.3077 84.3399 37.4263 84.2528 37.5284C84.1657 37.6306 84.0591 37.7143 83.9392 37.7747V40.1205C83.9412 40.1417 83.9386 40.1631 83.9315 40.1832C83.9245 40.2033 83.9133 40.2217 83.8985 40.2371C83.8838 40.2525 83.8659 40.2645 83.8461 40.2724C83.8263 40.2803 83.805 40.2838 83.7837 40.2827H82.932C82.8907 40.2827 82.8512 40.2663 82.822 40.2372C82.7929 40.208 82.7765 40.1685 82.7765 40.1272V37.8085C82.6566 37.7481 82.55 37.6644 82.4629 37.5622C82.3758 37.4601 82.3101 37.3415 82.2695 37.2136L81.0256 34.3473C81.0188 34.3253 81.0188 34.3017 81.0256 34.2797C81.0256 34.2474 81.0384 34.2165 81.0612 34.1936C81.084 34.1708 81.115 34.158 81.1473 34.158H82.0734C82.1099 34.1623 82.1443 34.1775 82.1721 34.2016C82.1998 34.2257 82.2196 34.2576 82.2289 34.2932L83.2159 36.7472C83.2767 36.8891 83.324 36.9162 83.3578 36.9162C83.3916 36.9162 83.4457 36.9162 83.5066 36.7472L84.5003 34.2932C84.5096 34.2576 84.5294 34.2257 84.5572 34.2016C84.5849 34.1775 84.6193 34.1623 84.6558 34.158H85.5617C85.5785 34.1561 85.5956 34.1576 85.6119 34.1624C85.6282 34.1672 85.6434 34.1752 85.6566 34.1858C85.6698 34.1965 85.6808 34.2097 85.6889 34.2247C85.6969 34.2396 85.7019 34.256 85.7036 34.2729C85.7026 34.2866 85.7003 34.3002 85.6969 34.3135Z" fill="white"/>
<path opacity="0.4" d="M88.8942 40.3234C88.4035 40.3278 87.9137 40.278 87.434 40.1747C87.3915 40.1713 87.352 40.152 87.3231 40.1206C87.2943 40.0893 87.2784 40.0482 87.2785 40.0057V39.4446C87.2776 39.4241 87.2807 39.4037 87.2877 39.3845C87.2947 39.3653 87.3054 39.3477 87.3192 39.3326C87.333 39.3175 87.3497 39.3053 87.3682 39.2967C87.3868 39.2881 87.4068 39.2832 87.4272 39.2823C87.7585 39.3296 88.5832 39.3635 88.8874 39.3635C89.6243 39.3635 89.8474 39.1066 89.8474 38.6266C89.8474 38.3021 89.6919 38.1331 89.1714 37.8154L88.0627 37.1394C87.7685 37.0139 87.5186 36.8033 87.3451 36.5347C87.1716 36.266 87.0825 35.9516 87.0892 35.6318C87.0892 34.726 87.6165 34.0635 89.1511 34.0635C89.6838 34.0694 90.2151 34.1191 90.7397 34.2122C90.7787 34.2168 90.8149 34.2348 90.842 34.2632C90.8692 34.2916 90.8856 34.3285 90.8884 34.3677V34.9761C90.8894 34.9953 90.8864 35.0145 90.8796 35.0325C90.8729 35.0505 90.8626 35.067 90.8493 35.0809C90.836 35.0948 90.8201 35.1059 90.8024 35.1134C90.7847 35.121 90.7657 35.1248 90.7465 35.1248C90.1989 35.0775 89.6446 35.0437 89.124 35.0437C88.6035 35.0437 88.2587 35.26 88.2587 35.6318C88.2587 36.0036 88.3939 36.0712 88.9347 36.3687L89.9217 36.923C90.2597 37.0492 90.5513 37.2752 90.7578 37.5711C90.9642 37.8669 91.0758 38.2185 91.0777 38.5793C91.071 39.4446 90.5504 40.3234 88.8942 40.3234Z" fill="white"/>
<path opacity="0.4" d="M93.9646 40.2556H93.1466C93.1036 40.2556 93.0623 40.2385 93.0319 40.2081C93.0015 40.1777 92.9844 40.1364 92.9844 40.0934V34.2797C92.9844 34.2384 93.0008 34.1989 93.0299 34.1697C93.0591 34.1406 93.0986 34.1242 93.1399 34.1242H93.9646C93.9859 34.1233 94.0072 34.1266 94.0272 34.1339C94.0473 34.1412 94.0656 34.1524 94.0813 34.1669C94.097 34.1813 94.1097 34.1987 94.1187 34.2181C94.1277 34.2374 94.1327 34.2583 94.1336 34.2797V40.1204C94.1319 40.1641 94.1133 40.2054 94.0818 40.2356C94.0503 40.2658 94.0083 40.2827 93.9646 40.2827V40.2556Z" fill="white"/>
<path opacity="0.4" d="M100.603 40.2551H99.7712C99.6658 40.275 99.5569 40.2558 99.4647 40.201C99.3726 40.1462 99.3037 40.0597 99.2709 39.9576L97.4592 35.9421C97.4592 35.888 97.4051 35.8745 97.3781 35.8745C97.351 35.8745 97.3375 35.8745 97.3375 35.9421V40.1199C97.3394 40.1405 97.3369 40.1613 97.3303 40.1809C97.3237 40.2006 97.313 40.2186 97.299 40.2339C97.285 40.2491 97.268 40.2613 97.249 40.2696C97.23 40.2779 97.2095 40.2822 97.1888 40.2821H96.5128C96.4912 40.284 96.4695 40.2814 96.4491 40.2744C96.4286 40.2674 96.4099 40.2563 96.394 40.2416C96.3781 40.227 96.3654 40.2092 96.3567 40.1894C96.3481 40.1696 96.3437 40.1482 96.3438 40.1266V34.4819C96.3455 34.3964 96.3802 34.3148 96.4407 34.2543C96.5012 34.1939 96.5827 34.1591 96.6682 34.1574H97.5606C97.7363 34.1574 97.8242 34.2047 97.9256 34.4143L99.8523 38.6597C99.8523 38.707 99.8523 38.7273 99.9199 38.7273C99.9875 38.7273 99.9604 38.7273 99.9604 38.6597V34.3129C99.9595 34.2933 99.9625 34.2738 99.9691 34.2554C99.9758 34.237 99.986 34.2201 99.9992 34.2057C100.012 34.1912 100.028 34.1795 100.046 34.1713C100.064 34.163 100.083 34.1583 100.102 34.1574H100.826C100.845 34.1565 100.865 34.1594 100.883 34.1661C100.902 34.1727 100.918 34.1829 100.933 34.1961C100.947 34.2093 100.959 34.2252 100.967 34.2429C100.976 34.2606 100.98 34.2798 100.981 34.2994V39.9509C100.983 39.9946 100.976 40.0382 100.961 40.0792C100.945 40.1201 100.921 40.1575 100.891 40.1891C100.861 40.2207 100.824 40.2458 100.784 40.2629C100.744 40.2801 100.701 40.2889 100.657 40.2889L100.603 40.2551Z" fill="white"/>
<path opacity="0.4" d="M106.924 40.1881C106.33 40.2907 105.728 40.336 105.126 40.3233C104.233 40.3233 102.915 39.7352 102.915 37.7883V36.5985C102.915 34.6448 104.172 34.0566 105.126 34.0566C105.721 34.0589 106.316 34.1086 106.904 34.2054C107.012 34.2054 107.059 34.2662 107.059 34.3811V34.9287C107.059 35.0504 107.025 35.1045 106.897 35.1045C106.511 35.1045 105.944 35.0369 105.153 35.0369C104.598 35.0369 104.044 35.4222 104.044 36.5985V37.7883C104.044 38.9645 104.598 39.3363 105.099 39.3363H105.917V37.2339C105.915 37.2133 105.917 37.1925 105.924 37.1728C105.93 37.1532 105.941 37.1352 105.955 37.1199C105.969 37.1046 105.986 37.0924 106.005 37.0841C106.024 37.0758 106.045 37.0716 106.065 37.0717H106.924C106.944 37.0698 106.965 37.0722 106.985 37.0789C107.005 37.0855 107.023 37.0961 107.038 37.1102C107.053 37.1242 107.065 37.1412 107.074 37.1602C107.082 37.1792 107.086 37.1997 107.086 37.2204V40.0056C107.086 40.0507 107.07 40.0943 107.04 40.128C107.01 40.1617 106.969 40.1831 106.924 40.1881Z" fill="white"/>
<path opacity="0.4" d="M116.57 40.255H115.712C115.606 40.2738 115.497 40.2542 115.404 40.1997C115.311 40.1452 115.24 40.0593 115.205 39.9575L113.353 35.942C113.353 35.9325 113.351 35.9231 113.347 35.9145C113.343 35.9058 113.338 35.898 113.331 35.8916C113.324 35.8853 113.315 35.8804 113.306 35.8775C113.297 35.8745 113.288 35.8734 113.278 35.8744C113.278 35.8744 113.238 35.8744 113.238 35.942V40.1198C113.24 40.1599 113.226 40.1993 113.199 40.2295C113.173 40.2598 113.136 40.2786 113.096 40.282H112.399C112.356 40.2821 112.314 40.2652 112.282 40.2349C112.251 40.2047 112.232 40.1634 112.23 40.1198V34.475C112.232 34.3884 112.268 34.3058 112.33 34.2452C112.392 34.1845 112.475 34.1505 112.562 34.1506H113.454C113.63 34.1506 113.724 34.1979 113.819 34.4074L115.746 38.6528C115.746 38.6696 115.752 38.6859 115.763 38.6984C115.774 38.7109 115.79 38.7187 115.807 38.7204C115.807 38.7204 115.847 38.7204 115.847 38.6528V34.306C115.847 34.2648 115.864 34.2253 115.893 34.1961C115.922 34.1669 115.961 34.1506 116.003 34.1506H116.719C116.739 34.1496 116.758 34.1526 116.777 34.1592C116.795 34.1659 116.812 34.1761 116.826 34.1893C116.841 34.2025 116.853 34.2184 116.861 34.2361C116.869 34.2538 116.874 34.273 116.875 34.2925V39.944C116.87 40.0238 116.837 40.0993 116.781 40.1564C116.725 40.2136 116.65 40.2486 116.57 40.255Z" fill="white"/>
<path opacity="0.4" d="M122.532 40.2078C122.017 40.2967 121.494 40.3352 120.971 40.3227C119.896 40.3227 119.058 40.032 119.058 38.6259V35.7528C119.058 34.3467 119.896 34.056 120.971 34.056C121.494 34.0435 122.017 34.082 122.532 34.1709C122.661 34.1709 122.701 34.225 122.701 34.3467V34.901C122.702 34.922 122.699 34.943 122.691 34.9626C122.684 34.9823 122.673 35.0002 122.658 35.0154C122.644 35.0305 122.626 35.0426 122.607 35.0508C122.588 35.0591 122.567 35.0633 122.546 35.0633H120.876C120.389 35.0633 120.2 35.2323 120.2 35.7798V36.6722H122.471C122.493 36.6702 122.514 36.6728 122.534 36.6799C122.554 36.6869 122.573 36.6982 122.588 36.7129C122.603 36.7276 122.616 36.7455 122.623 36.7653C122.631 36.7851 122.635 36.8064 122.634 36.8277V37.4158C122.634 37.4588 122.617 37.5001 122.586 37.5305C122.556 37.561 122.515 37.5781 122.471 37.5781H120.254V38.6462C120.254 39.1937 120.423 39.3222 120.93 39.3222H122.586C122.631 39.3222 122.674 39.34 122.706 39.3717C122.738 39.4034 122.755 39.4464 122.755 39.4912V40.1199C122.701 40.1537 122.661 40.1875 122.532 40.2078Z" fill="white"/>
<path opacity="0.4" d="M128.211 40.2079C127.695 40.2969 127.172 40.3353 126.649 40.3229C125.575 40.3229 124.736 40.0322 124.736 38.6261V35.753C124.736 34.3469 125.575 34.0562 126.649 34.0562C127.173 34.0404 127.696 34.0789 128.211 34.1711C128.339 34.1711 128.38 34.2252 128.38 34.3469V34.9012C128.381 34.9222 128.378 34.9431 128.37 34.9628C128.363 34.9824 128.352 35.0004 128.337 35.0155C128.322 35.0307 128.305 35.0428 128.286 35.051C128.266 35.0592 128.246 35.0635 128.225 35.0635H126.528C126.048 35.0635 125.852 35.2325 125.852 35.78V36.6724H128.069C128.11 36.6724 128.15 36.6888 128.179 36.7179C128.208 36.7471 128.225 36.7866 128.225 36.8279V37.416C128.225 37.437 128.222 37.4579 128.215 37.4776C128.207 37.4972 128.196 37.5152 128.182 37.5303C128.167 37.5455 128.15 37.5576 128.13 37.5658C128.111 37.574 128.09 37.5783 128.069 37.5782H125.852V38.6463C125.852 39.1939 126.028 39.3224 126.528 39.3224H128.184C128.229 39.3224 128.272 39.3402 128.304 39.3719C128.335 39.4036 128.353 39.4465 128.353 39.4914V40.1201C128.38 40.1539 128.319 40.1877 128.211 40.2079Z" fill="white"/>
<path opacity="0.4" d="M132.261 40.3226C131.716 40.3227 131.172 40.2888 130.631 40.2212C130.602 40.2203 130.574 40.2136 130.548 40.2015C130.521 40.1894 130.498 40.1721 130.478 40.1507C130.458 40.1292 130.443 40.1041 130.434 40.0767C130.424 40.0493 130.42 40.0203 130.422 39.9913V34.4345C130.414 34.3755 130.429 34.3157 130.465 34.2678C130.5 34.2199 130.553 34.1876 130.611 34.1776C131.152 34.1099 131.696 34.0761 132.24 34.0762C133.903 34.0762 134.836 34.9685 134.836 36.6045V37.8145C134.857 39.4437 133.917 40.3226 132.261 40.3226ZM133.714 36.5977C133.714 35.3606 133.092 35.0361 132.261 35.0361C132.036 35.0203 131.81 35.0203 131.585 35.0361V39.3221H132.261C133.092 39.3221 133.714 38.9976 133.714 37.7605V36.5977Z" fill="white"/>
<path opacity="0.4" d="M138.399 40.3234C137.908 40.3316 137.418 40.2816 136.939 40.1747C136.896 40.17 136.857 40.1505 136.827 40.1196C136.797 40.0887 136.78 40.0484 136.777 40.0057V39.4446C136.777 39.4015 136.794 39.3603 136.824 39.3298C136.855 39.2994 136.896 39.2823 136.939 39.2823C137.263 39.3296 138.088 39.3635 138.399 39.3635C139.129 39.3635 139.359 39.1066 139.359 38.6266C139.359 38.3021 139.197 38.1331 138.683 37.8154L137.574 37.1394C137.29 37.0061 137.05 36.7922 136.885 36.5243C136.721 36.2564 136.638 35.9461 136.648 35.6318C136.648 34.726 137.176 34.0635 138.717 34.0635C139.247 34.0691 139.776 34.1188 140.299 34.2122C140.338 34.2168 140.374 34.2348 140.401 34.2632C140.428 34.2916 140.445 34.3285 140.447 34.3677V34.9761C140.449 35.0127 140.437 35.0486 140.413 35.0763C140.389 35.104 140.355 35.1214 140.319 35.1248C139.771 35.0775 139.217 35.0437 138.697 35.0437C138.176 35.0437 137.825 35.26 137.825 35.6318C137.825 36.0036 137.966 36.0712 138.501 36.3687L139.488 36.923C139.825 37.0495 140.115 37.2758 140.321 37.5717C140.526 37.8676 140.636 38.2191 140.637 38.5793C140.569 39.4446 140.049 40.3234 138.399 40.3234Z" fill="white"/>
<path opacity="0.4" d="M143.523 39.1606L142.807 40.8912C142.766 40.9926 142.739 41.0602 142.651 41.0602H142.077C142.047 41.0621 142.018 41.0527 141.996 41.0338C141.973 41.0149 141.958 40.9881 141.955 40.9588V40.8912L142.462 39.1606C142.462 39.0592 142.53 38.9983 142.624 38.9983H143.429C143.456 38.9964 143.484 39.0051 143.505 39.0227C143.527 39.0403 143.54 39.0655 143.544 39.093C143.54 39.1164 143.533 39.1391 143.523 39.1606Z" fill="white"/>
<path opacity="0.4" d="M150.378 40.3226C149.833 40.3225 149.289 40.2886 148.749 40.2212C148.72 40.2212 148.691 40.2154 148.664 40.2041C148.638 40.1928 148.613 40.1762 148.593 40.1554C148.573 40.1346 148.557 40.11 148.547 40.0829C148.536 40.0559 148.531 40.0271 148.532 39.9981V34.4345C148.524 34.3755 148.54 34.3157 148.575 34.2678C148.61 34.2199 148.663 34.1876 148.722 34.1776C149.262 34.1101 149.806 34.0763 150.351 34.0762C152.014 34.0762 152.94 34.9685 152.94 36.6045V37.8145C152.967 39.4437 152.027 40.3226 150.378 40.3226ZM151.831 36.5977C151.831 35.3606 151.203 35.0361 150.378 35.0361C150.153 35.0203 149.927 35.0203 149.702 35.0361V39.3221H150.378C151.203 39.3221 151.831 38.9976 151.831 37.7605V36.5977Z" fill="white"/>
<path opacity="0.4" d="M158.443 40.2081C157.926 40.2971 157.4 40.3355 156.875 40.323C155.8 40.323 154.969 40.0323 154.969 38.6262V35.7531C154.969 34.347 155.8 34.0563 156.875 34.0563C157.4 34.0402 157.926 34.0787 158.443 34.1712C158.572 34.1712 158.612 34.2253 158.612 34.347V34.9013C158.613 34.9223 158.61 34.9432 158.603 34.9629C158.595 34.9825 158.584 35.0005 158.569 35.0157C158.555 35.0308 158.537 35.0429 158.518 35.0511C158.499 35.0593 158.478 35.0636 158.457 35.0636H156.78C156.307 35.0636 156.104 35.2326 156.104 35.7801V36.6725H158.315C158.336 36.6716 158.358 36.6749 158.378 36.6822C158.398 36.6895 158.416 36.7007 158.432 36.7152C158.447 36.7296 158.46 36.747 158.469 36.7664C158.478 36.7857 158.483 36.8066 158.484 36.828V37.4161C158.482 37.4597 158.464 37.501 158.432 37.5313C158.401 37.5615 158.359 37.5784 158.315 37.5783H156.104V38.6464C156.104 39.194 156.28 39.3225 156.78 39.3225H158.443C158.488 39.3225 158.531 39.3403 158.563 39.372C158.595 39.4037 158.612 39.4467 158.612 39.4915V40.1202C158.612 40.154 158.572 40.1878 158.443 40.2081Z" fill="white"/>
<path opacity="0.4" d="M163.959 40.2083C163.494 40.2841 163.024 40.3225 162.553 40.3233C161.485 40.3233 160.653 40.0326 160.653 38.6264V34.2864C160.653 34.2654 160.656 34.2445 160.663 34.2248C160.671 34.2052 160.682 34.1872 160.697 34.1721C160.711 34.1569 160.729 34.1449 160.748 34.1366C160.767 34.1284 160.788 34.1242 160.809 34.1242H161.634C161.655 34.1233 161.676 34.1266 161.695 34.134C161.715 34.1414 161.733 34.1527 161.748 34.1673C161.763 34.1818 161.775 34.1992 161.783 34.2185C161.792 34.2379 161.796 34.2587 161.796 34.2797V38.6197C161.796 39.174 161.965 39.2957 162.438 39.2957H163.959C164.004 39.2957 164.047 39.3135 164.079 39.3452C164.11 39.3769 164.128 39.4199 164.128 39.4647V40.019C164.128 40.1542 164.081 40.188 163.959 40.2083Z" fill="white"/>
<path opacity="0.4" d="M166.818 40.2556H166C165.956 40.2557 165.914 40.2388 165.883 40.2086C165.851 40.1783 165.833 40.137 165.831 40.0934V34.2797C165.832 34.2583 165.837 34.2374 165.846 34.2181C165.855 34.1987 165.868 34.1813 165.883 34.1669C165.899 34.1524 165.917 34.1412 165.937 34.1339C165.957 34.1266 165.979 34.1233 166 34.1242H166.818C166.839 34.1233 166.86 34.1266 166.88 34.134C166.899 34.1414 166.917 34.1527 166.932 34.1673C166.948 34.1818 166.96 34.1992 166.968 34.2185C166.976 34.2379 166.98 34.2587 166.98 34.2797V40.1204C166.974 40.1586 166.954 40.1933 166.924 40.2181C166.894 40.2429 166.857 40.2562 166.818 40.2556Z" fill="white"/>
<path opacity="0.4" d="M173.735 34.3L172.383 39.485C172.305 39.7277 172.152 39.9395 171.946 40.0897C171.74 40.24 171.492 40.3209 171.237 40.3209C170.982 40.3209 170.734 40.24 170.528 40.0897C170.322 39.9395 170.169 39.7277 170.091 39.485L168.739 34.3V34.2594C168.741 34.2229 168.757 34.1885 168.783 34.1634C168.81 34.1382 168.845 34.1242 168.881 34.1242H169.767C169.804 34.1281 169.84 34.143 169.869 34.1671C169.897 34.1911 169.919 34.2233 169.929 34.2594L171.146 39.2416C171.146 39.3363 171.193 39.3701 171.274 39.3701C171.355 39.3701 171.382 39.3701 171.41 39.2416L172.606 34.2594C172.613 34.2229 172.633 34.1898 172.661 34.1654C172.689 34.1409 172.724 34.1264 172.762 34.1242H173.64C173.659 34.1233 173.677 34.1261 173.694 34.1325C173.711 34.1389 173.727 34.1487 173.74 34.1613C173.754 34.174 173.764 34.1892 173.771 34.206C173.779 34.2229 173.782 34.2411 173.782 34.2594C173.764 34.269 173.747 34.2829 173.735 34.3Z" fill="white"/>
<path opacity="0.4" d="M178.655 40.2078C178.14 40.2967 177.617 40.3352 177.094 40.3227C176.019 40.3227 175.181 40.032 175.181 38.6259V35.7528C175.181 34.3467 176.019 34.056 177.094 34.056C177.617 34.0435 178.14 34.082 178.655 34.1709C178.777 34.1709 178.824 34.225 178.824 34.3467V34.901C178.823 34.9447 178.804 34.9859 178.773 35.0162C178.741 35.0464 178.699 35.0633 178.655 35.0633H176.999C176.519 35.0633 176.323 35.2323 176.323 35.7798V36.6722H178.581C178.602 36.6713 178.623 36.6746 178.643 36.682C178.662 36.6894 178.68 36.7007 178.695 36.7153C178.711 36.7298 178.723 36.7473 178.731 36.7666C178.739 36.7859 178.743 36.8067 178.743 36.8277V37.4158C178.743 37.4588 178.726 37.5001 178.696 37.5305C178.665 37.561 178.624 37.5781 178.581 37.5781H176.364V38.6462C176.364 39.1937 176.539 39.3222 177.04 39.3222H178.696C178.74 39.3239 178.782 39.3422 178.814 39.3735C178.845 39.4049 178.863 39.4469 178.865 39.4912V40.1199C178.824 40.1537 178.777 40.1875 178.655 40.2078Z" fill="white"/>
<path opacity="0.4" d="M185.227 40.2557H184.226C184.131 40.2557 184.098 40.1746 184.064 40.0935L182.874 37.8762H182.752C182.509 37.8826 182.264 37.8713 182.022 37.8424V40.0597C182.023 40.0807 182.02 40.1016 182.012 40.1213C182.005 40.1409 181.994 40.1589 181.979 40.174C181.965 40.1892 181.947 40.2013 181.928 40.2095C181.909 40.2177 181.888 40.222 181.867 40.2219H181.042C180.998 40.222 180.956 40.2051 180.925 40.1749C180.893 40.1446 180.875 40.1033 180.873 40.0597V34.415C180.873 34.246 180.974 34.1919 181.137 34.1648C181.672 34.0916 182.212 34.0554 182.752 34.0567C184.03 34.0567 185.132 34.5096 185.132 35.9225V35.9968C185.155 36.3554 185.059 36.7116 184.86 37.0107C184.661 37.3099 184.37 37.5355 184.03 37.6531L185.342 40.1205C185.348 40.1403 185.348 40.1617 185.342 40.1814C185.343 40.1929 185.343 40.2048 185.34 40.2162C185.338 40.2276 185.333 40.2383 185.326 40.2478C185.319 40.2572 185.31 40.2652 185.3 40.2712C185.29 40.2772 185.279 40.2811 185.267 40.2828L185.227 40.2557ZM183.989 35.9225C183.989 35.3005 183.577 35.0369 182.752 35.0369C182.509 35.0193 182.265 35.0193 182.022 35.0369V36.8959H182.752C183.604 36.8959 183.989 36.6729 183.989 35.936V35.9225Z" fill="white"/>
<path opacity="0.4" d="M188.16 40.2556H187.369C187.326 40.2556 187.285 40.2385 187.255 40.2081C187.224 40.1777 187.207 40.1364 187.207 40.0934V34.2797C187.207 34.2587 187.211 34.2379 187.219 34.2185C187.228 34.1992 187.24 34.1818 187.255 34.1673C187.27 34.1527 187.288 34.1414 187.308 34.134C187.327 34.1266 187.348 34.1233 187.369 34.1242H188.187C188.209 34.1233 188.23 34.1266 188.25 34.1339C188.27 34.1412 188.288 34.1524 188.304 34.1669C188.32 34.1813 188.332 34.1987 188.341 34.2181C188.35 34.2374 188.355 34.2583 188.356 34.2797V40.1204C188.348 40.1643 188.323 40.2031 188.286 40.2284C188.249 40.2538 188.204 40.2635 188.16 40.2556Z" fill="white"/>
<path opacity="0.4" d="M194.806 40.255H193.968C193.863 40.2749 193.754 40.2557 193.661 40.2009C193.569 40.1462 193.5 40.0596 193.468 39.9575L191.636 35.942C191.636 35.9325 191.634 35.9231 191.63 35.9145C191.626 35.9058 191.621 35.898 191.614 35.8916C191.607 35.8853 191.598 35.8804 191.589 35.8775C191.58 35.8745 191.571 35.8734 191.561 35.8744C191.561 35.8744 191.521 35.8744 191.521 35.942V40.1198C191.523 40.1599 191.509 40.1992 191.482 40.2295C191.456 40.2597 191.419 40.2786 191.379 40.282H190.662C190.618 40.2821 190.576 40.2652 190.545 40.2349C190.513 40.2047 190.495 40.1634 190.493 40.1198V34.475C190.495 34.3884 190.531 34.3058 190.593 34.2452C190.654 34.1845 190.738 34.1505 190.824 34.1505H191.717C191.893 34.1505 191.987 34.1979 192.082 34.4074L194.002 38.6528C194.003 38.6702 194.011 38.6866 194.023 38.6989C194.036 38.7113 194.052 38.7189 194.069 38.7204C194.069 38.7204 194.117 38.7204 194.117 38.6528V34.306C194.116 34.2865 194.119 34.267 194.125 34.2486C194.132 34.2302 194.142 34.2133 194.155 34.1988C194.169 34.1844 194.184 34.1727 194.202 34.1644C194.22 34.1561 194.239 34.1514 194.259 34.1505H194.982C195.002 34.1496 195.022 34.1528 195.041 34.1599C195.06 34.1669 195.077 34.1777 195.091 34.1916C195.106 34.2055 195.118 34.2223 195.125 34.2408C195.133 34.2593 195.137 34.2792 195.137 34.2993V39.9372C195.139 39.981 195.132 40.0246 195.117 40.0656C195.101 40.1065 195.078 40.1439 195.047 40.1755C195.017 40.2071 194.981 40.2322 194.94 40.2493C194.9 40.2665 194.857 40.2753 194.813 40.2753L194.806 40.255Z" fill="white"/>
<path opacity="0.4" d="M201.147 40.1881C200.551 40.2908 199.947 40.336 199.342 40.3233C198.45 40.3233 197.132 39.7352 197.132 37.7883V36.5985C197.132 34.6448 198.382 34.0566 199.342 34.0566C199.938 34.0589 200.533 34.1086 201.12 34.2054C201.228 34.2054 201.276 34.2662 201.276 34.3811V34.9287C201.276 35.0504 201.242 35.1045 201.114 35.1045C200.728 35.1045 200.16 35.0369 199.369 35.0369C198.815 35.0369 198.261 35.4222 198.261 36.5985V37.7883C198.261 38.9645 198.815 39.3363 199.315 39.3363H200.133V37.2339C200.131 37.2127 200.134 37.1913 200.141 37.1712C200.148 37.1511 200.159 37.1327 200.174 37.1173C200.189 37.1019 200.207 37.0899 200.226 37.082C200.246 37.0741 200.268 37.0706 200.289 37.0717H201.107C201.127 37.0698 201.148 37.0722 201.168 37.0789C201.188 37.0855 201.206 37.0961 201.221 37.1102C201.236 37.1242 201.248 37.1412 201.257 37.1602C201.265 37.1792 201.269 37.1997 201.269 37.2204V40.0056C201.271 40.0451 201.261 40.0843 201.239 40.1172C201.217 40.1501 201.185 40.175 201.147 40.1881Z" fill="white"/>
<path opacity="0.4" d="M207.995 40.3234C207.504 40.3312 207.014 40.2813 206.535 40.1747C206.492 40.17 206.452 40.1505 206.423 40.1196C206.393 40.0887 206.375 40.0484 206.372 40.0057V39.4446C206.372 39.4015 206.39 39.3603 206.42 39.3298C206.45 39.2994 206.492 39.2823 206.535 39.2823C206.859 39.3296 207.691 39.3635 207.995 39.3635C208.732 39.3635 208.955 39.1066 208.955 38.6266C208.955 38.3021 208.793 38.1331 208.279 37.8154L207.17 37.1394C206.876 37.0139 206.626 36.8033 206.453 36.5347C206.279 36.266 206.19 35.9516 206.197 35.6318C206.197 34.726 206.751 34.0635 208.258 34.0635C208.791 34.0691 209.323 34.1188 209.847 34.2122C209.886 34.2168 209.922 34.2348 209.949 34.2632C209.977 34.2916 209.993 34.3285 209.996 34.3677V34.9761C209.998 35.0127 209.985 35.0486 209.962 35.0763C209.938 35.104 209.904 35.1214 209.867 35.1248C209.313 35.0775 208.759 35.0437 208.245 35.0437C207.731 35.0437 207.373 35.26 207.373 35.6318C207.373 36.0036 207.515 36.0712 208.049 36.3687L209.036 36.923C209.373 37.0495 209.664 37.2758 209.869 37.5717C210.074 37.8676 210.185 38.2191 210.185 38.5793C210.165 39.4446 209.678 40.3234 207.995 40.3234Z" fill="white"/>
<path opacity="0.4" d="M214.269 40.3225C212.917 40.3225 211.916 39.5654 211.916 37.7469V36.645C211.916 34.8265 212.91 34.0693 214.269 34.0693C215.627 34.0693 216.628 34.8265 216.628 36.645V37.7469C216.628 39.5654 215.634 40.3225 214.269 40.3225ZM215.472 36.6314C215.472 35.5228 215.08 35.0496 214.269 35.0496C213.457 35.0496 213.072 35.543 213.072 36.6314V37.7401C213.072 38.842 213.457 39.3085 214.269 39.3085C215.08 39.3085 215.472 38.8217 215.472 37.7401V36.6314Z" fill="white"/>
<path opacity="0.4" d="M221.935 40.2082C221.47 40.2837 220.999 40.3221 220.528 40.3231C219.454 40.3231 218.622 40.0324 218.622 38.6263V34.2863C218.622 34.2432 218.639 34.202 218.67 34.1715C218.7 34.1411 218.741 34.124 218.784 34.124H219.602C219.646 34.124 219.688 34.1409 219.719 34.1711C219.751 34.2014 219.77 34.2426 219.771 34.2863V38.6263C219.771 39.1806 219.934 39.3023 220.414 39.3023H221.935C221.978 39.3055 222.02 39.3243 222.051 39.3553C222.082 39.3864 222.1 39.4275 222.104 39.4713V40.0257C222.104 40.1541 222.056 40.1879 221.935 40.2082Z" fill="white"/>
<path opacity="0.4" d="M225.74 40.3226C224.388 40.3226 223.476 39.7683 223.476 37.9836V34.279C223.476 34.258 223.48 34.2373 223.488 34.2179C223.496 34.1986 223.508 34.1812 223.523 34.1666C223.539 34.1521 223.557 34.1408 223.576 34.1334C223.596 34.126 223.617 34.1226 223.638 34.1236H224.456C224.476 34.1217 224.497 34.1241 224.517 34.1308C224.537 34.1374 224.555 34.148 224.57 34.162C224.585 34.176 224.597 34.1931 224.606 34.2121C224.614 34.231 224.618 34.2516 224.618 34.2723V37.9769C224.618 38.9233 224.855 39.3289 225.727 39.3289C226.599 39.3289 226.835 38.8895 226.835 37.9769V34.2723C226.835 34.2513 226.84 34.2305 226.848 34.2112C226.856 34.1919 226.868 34.1744 226.883 34.1599C226.898 34.1453 226.916 34.134 226.936 34.1266C226.956 34.1192 226.977 34.1159 226.998 34.1168H227.816C227.837 34.1149 227.859 34.1175 227.879 34.1245C227.9 34.1315 227.919 34.1426 227.934 34.1573C227.95 34.1719 227.963 34.1897 227.972 34.2095C227.98 34.2293 227.985 34.2507 227.985 34.2723V37.9769C228.012 39.7413 227.072 40.3226 225.74 40.3226Z" fill="white"/>
<path opacity="0.4" d="M233.927 35.0832H232.481V40.1195C232.479 40.1632 232.46 40.2045 232.429 40.2347C232.397 40.265 232.355 40.2818 232.312 40.2818H231.494C231.471 40.2847 231.447 40.2826 231.425 40.2758C231.403 40.2689 231.383 40.2574 231.365 40.2421C231.348 40.2267 231.334 40.2078 231.325 40.1867C231.316 40.1656 231.311 40.1427 231.311 40.1195V35.1103H229.864C229.822 35.1122 229.781 35.0977 229.75 35.07C229.718 35.0422 229.699 35.0034 229.695 34.9615V34.2855C229.696 34.2642 229.701 34.2433 229.71 34.2239C229.719 34.2046 229.732 34.1872 229.748 34.1727C229.763 34.1583 229.782 34.1471 229.802 34.1398C229.822 34.1324 229.843 34.1291 229.864 34.13H233.92C233.941 34.1291 233.961 34.1323 233.979 34.1394C233.998 34.1464 234.015 34.1572 234.03 34.1711C234.045 34.185 234.056 34.2017 234.064 34.2202C234.072 34.2387 234.076 34.2586 234.076 34.2788V34.9548C234.076 34.9942 234.06 35.0321 234.032 35.0599C234.004 35.0878 233.967 35.1035 233.927 35.1035V35.0832Z" fill="white"/>
<path opacity="0.4" d="M236.813 40.2561H235.995C235.952 40.2561 235.911 40.239 235.881 40.2086C235.85 40.1782 235.833 40.1369 235.833 40.0939V34.2801C235.833 34.2389 235.849 34.1994 235.879 34.1702C235.908 34.141 235.947 34.1247 235.988 34.1247H236.813C236.834 34.1228 236.854 34.125 236.874 34.1312C236.893 34.1373 236.912 34.1473 236.927 34.1605C236.943 34.1737 236.956 34.1898 236.965 34.208C236.975 34.2263 236.981 34.2462 236.982 34.2666V40.1209C236.983 40.1419 236.98 40.1629 236.972 40.1825C236.965 40.2022 236.954 40.2201 236.939 40.2353C236.925 40.2504 236.907 40.2625 236.888 40.2707C236.869 40.279 236.848 40.2832 236.827 40.2832L236.813 40.2561Z" fill="white"/>
<path opacity="0.4" d="M241.336 40.3225C239.984 40.3225 238.983 39.5654 238.983 37.7469V36.645C238.983 34.8265 239.977 34.0693 241.336 34.0693C242.695 34.0693 243.688 34.8265 243.688 36.645V37.7469C243.688 39.5654 242.695 40.3225 241.336 40.3225ZM242.532 36.6314C242.532 35.5228 242.147 35.0496 241.336 35.0496C240.525 35.0496 240.139 35.543 240.139 36.6314V37.7401C240.139 38.842 240.525 39.3085 241.336 39.3085C242.147 39.3085 242.532 38.8217 242.532 37.7401V36.6314Z" fill="white"/>
<path opacity="0.4" d="M250.003 40.255H249.165C249.058 40.2738 248.949 40.2542 248.856 40.1997C248.763 40.1452 248.693 40.0593 248.658 39.9575L246.859 35.942C246.859 35.9241 246.852 35.9069 246.84 35.8942C246.827 35.8815 246.81 35.8744 246.792 35.8744C246.792 35.8744 246.744 35.8744 246.744 35.942V40.1198C246.746 40.1399 246.744 40.1601 246.738 40.1793C246.732 40.1985 246.722 40.2162 246.708 40.2314C246.695 40.2465 246.679 40.2589 246.661 40.2676C246.642 40.2763 246.623 40.2812 246.602 40.282H245.886C245.865 40.282 245.843 40.2778 245.824 40.2697C245.804 40.2615 245.786 40.2496 245.771 40.2345C245.756 40.2194 245.744 40.2015 245.736 40.1819C245.728 40.1622 245.724 40.1411 245.724 40.1198V34.475C245.724 34.4324 245.732 34.3902 245.748 34.3509C245.765 34.3115 245.789 34.2757 245.819 34.2456C245.849 34.2155 245.885 34.1916 245.924 34.1752C245.963 34.1589 246.005 34.1505 246.048 34.1505H246.947C247.116 34.1505 247.211 34.1979 247.312 34.4074L249.232 38.6528C249.232 38.6707 249.239 38.6879 249.252 38.7006C249.265 38.7133 249.282 38.7204 249.3 38.7204C249.3 38.7204 249.34 38.7204 249.34 38.6528V34.306C249.339 34.2865 249.342 34.267 249.349 34.2486C249.356 34.2302 249.366 34.2133 249.379 34.1988C249.392 34.1844 249.408 34.1727 249.426 34.1644C249.444 34.1561 249.463 34.1514 249.482 34.1505H250.206C250.226 34.1496 250.246 34.1528 250.266 34.1598C250.285 34.1667 250.303 34.1774 250.318 34.1913C250.333 34.2051 250.345 34.2217 250.353 34.2403C250.362 34.2588 250.367 34.2788 250.368 34.2993V39.9372C250.368 40.0257 250.333 40.1107 250.271 40.1739C250.209 40.2371 250.125 40.2735 250.037 40.2753L250.003 40.255Z" fill="white"/>
<path opacity="0.4" d="M254.032 40.3234C253.541 40.3278 253.051 40.278 252.572 40.1747C252.53 40.1686 252.492 40.1484 252.464 40.1177C252.436 40.0869 252.419 40.0474 252.416 40.0057V39.4446C252.415 39.4241 252.418 39.4037 252.425 39.3845C252.432 39.3653 252.443 39.3477 252.457 39.3326C252.471 39.3175 252.487 39.3053 252.506 39.2967C252.524 39.2881 252.544 39.2832 252.565 39.2823C252.896 39.3296 253.721 39.3635 254.025 39.3635C254.762 39.3635 254.985 39.1066 254.985 38.6266C254.985 38.3021 254.829 38.1331 254.309 37.8154L253.2 37.1394C252.907 37.0132 252.657 36.8024 252.484 36.5339C252.31 36.2654 252.221 35.9514 252.227 35.6318C252.227 34.726 252.754 34.0635 254.255 34.0635C254.788 34.0691 255.319 34.1188 255.844 34.2122C255.883 34.2168 255.919 34.2348 255.946 34.2632C255.973 34.2916 255.989 34.3285 255.992 34.3677V34.9761C255.993 34.9953 255.99 35.0145 255.983 35.0325C255.977 35.0505 255.966 35.067 255.953 35.0809C255.94 35.0948 255.924 35.1059 255.906 35.1134C255.889 35.121 255.869 35.1248 255.85 35.1248C255.296 35.0775 254.742 35.0437 254.228 35.0437C253.714 35.0437 253.356 35.26 253.356 35.6318C253.356 36.0036 253.498 36.0712 254.032 36.3687L255.026 36.923C255.362 37.0503 255.652 37.2768 255.858 37.5725C256.063 37.8683 256.173 38.2193 256.175 38.5793C256.188 39.4446 255.688 40.3234 254.032 40.3234Z" fill="white"/>
<path d="M62.4487 21.389C60.9601 21.4108 59.4741 21.2588 58.0208 20.936C57.8973 20.9188 57.7831 20.8609 57.6962 20.7715C57.6093 20.6822 57.5546 20.5664 57.5408 20.4425V18.6376C57.5442 18.5114 57.5959 18.3912 57.6852 18.302C57.7745 18.2127 57.8946 18.161 58.0208 18.1576H58.0681C59.0686 18.286 61.5699 18.4145 62.496 18.4145C64.7134 18.4145 65.3961 17.61 65.3961 16.1633C65.3961 15.1831 64.9229 14.6829 63.2734 13.7094L59.9542 11.7287C57.6287 10.3766 57 8.90969 57 7.15204C57 4.38713 58.6022 2.41992 63.2532 2.41992C64.8629 2.42972 66.4689 2.579 68.0529 2.86609C68.1732 2.87886 68.2851 2.93427 68.3681 3.0223C68.4512 3.11033 68.5 3.22517 68.5058 3.34606V5.19159C68.5095 5.30591 68.4686 5.41717 68.3916 5.50175C68.3145 5.58632 68.2076 5.63754 68.0934 5.64452H68.0258C66.3696 5.4958 64.7066 5.39439 63.0977 5.39439C61.2522 5.39439 60.4747 6.07041 60.4747 7.16556C60.4747 7.99706 60.9006 8.51759 62.5028 9.38289L65.5246 11.0527C68.2962 12.5805 68.9993 14.1759 68.9993 16.1498C69.0196 18.6849 67.431 21.389 62.4487 21.389Z" fill="white"/>
<path d="M77.3207 21.3874C73.3931 21.3874 71.3447 18.7306 71.3447 15.1545V13.1264C71.3447 9.5503 73.3728 6.89355 77.3207 6.89355C81.2687 6.89355 83.2967 9.5503 83.2967 13.1264V15.1545C83.2967 18.7306 81.2687 21.3874 77.3207 21.3874ZM80.0248 13.1332C80.0248 11.1051 79.1054 9.75311 77.3207 9.75311C75.536 9.75311 74.6167 11.1051 74.6167 13.1332V15.1612C74.6167 17.1893 75.536 18.5413 77.3207 18.5413C79.1054 18.5413 80.0248 17.1893 80.0248 15.1612V13.1332Z" fill="white"/>
<path d="M89.0767 21.1919H86.7512C86.6138 21.1784 86.4863 21.1141 86.3938 21.0116C86.3012 20.9091 86.2503 20.7757 86.251 20.6376V2.65553C86.251 2.58984 86.2639 2.52478 86.2891 2.46409C86.3142 2.4034 86.351 2.34825 86.3975 2.3018C86.444 2.25534 86.4991 2.2185 86.5598 2.19336C86.6205 2.16822 86.6855 2.15527 86.7512 2.15527H89.0767C89.1403 2.15527 89.2033 2.16791 89.262 2.19245C89.3207 2.21699 89.3739 2.25295 89.4185 2.29824C89.4632 2.34352 89.4984 2.39724 89.5221 2.45626C89.5458 2.51527 89.5576 2.57841 89.5567 2.64201V20.6579C89.5604 20.7245 89.5508 20.7911 89.5287 20.854C89.5065 20.917 89.4721 20.9749 89.4275 21.0245C89.383 21.0741 89.329 21.1144 89.2688 21.1432C89.2086 21.1719 89.1434 21.1885 89.0767 21.1919Z" fill="white"/>
<path d="M103.962 21.1925H101.657C101.525 21.1907 101.4 21.1372 101.308 21.0436C101.215 20.95 101.163 20.8237 101.163 20.6922V20.1379C100.024 20.9743 98.6424 21.4158 97.229 21.3953C96.1048 21.4629 94.9993 21.0839 94.1531 20.3407C93.227 19.4145 92.9092 17.8665 92.9092 15.7911V7.60452C92.9074 7.4694 92.9589 7.33901 93.0525 7.24158C93.1461 7.14415 93.2744 7.08753 93.4095 7.08398H95.7079C95.8397 7.09669 95.9627 7.15617 96.0544 7.25165C96.1462 7.34713 96.2007 7.47231 96.2082 7.60452V15.7843C96.2082 17.035 96.3096 17.7583 96.7625 18.1774C97.1982 18.5275 97.7549 18.6905 98.3106 18.6304C99.3135 18.5041 100.277 18.1628 101.136 17.6299V7.60452C101.136 7.46991 101.188 7.34049 101.282 7.24344C101.375 7.14638 101.502 7.08923 101.637 7.08398H103.962C104.094 7.09669 104.217 7.15617 104.309 7.25165C104.4 7.34713 104.455 7.47231 104.462 7.60452V20.7125C104.457 20.8416 104.402 20.9637 104.309 21.0532C104.216 21.1427 104.091 21.1926 103.962 21.1925Z" fill="white"/>
<path d="M115.137 21.1912C114.575 21.2972 114.005 21.356 113.433 21.367C110.607 21.367 109.458 20.7383 109.458 17.392V9.55693L107.106 9.2054C106.978 9.19212 106.858 9.13515 106.767 9.04405C106.676 8.95296 106.619 8.83329 106.605 8.70515V7.60324C106.607 7.47111 106.66 7.34488 106.754 7.25144C106.847 7.158 106.974 7.10474 107.106 7.10299H109.458V5.02762C109.472 4.89947 109.529 4.77981 109.62 4.68871C109.711 4.59762 109.83 4.54065 109.959 4.52736L112.291 4.12852H112.385C112.433 4.12288 112.48 4.12665 112.526 4.13961C112.572 4.15257 112.614 4.17447 112.651 4.20402C112.688 4.23358 112.719 4.27021 112.742 4.31179C112.765 4.35337 112.779 4.39908 112.784 4.44625V7.08271H115.035C115.166 7.08271 115.292 7.1347 115.384 7.22725C115.477 7.3198 115.529 7.44532 115.529 7.5762V9.08372C115.529 9.21523 115.477 9.34146 115.385 9.43508C115.292 9.52871 115.167 9.5822 115.035 9.58397H112.778V17.3852C112.778 18.6358 112.852 18.7913 113.758 18.7913H115.11C115.434 18.7913 115.63 18.913 115.63 19.1631V20.7383C115.59 21.0087 115.461 21.1912 115.137 21.1912Z" fill="white"/>
<path d="M120.815 5.21113H118.415C118.282 5.20524 118.155 5.15139 118.058 5.05949C117.961 4.96758 117.901 4.84379 117.888 4.71088V2.5003C117.893 2.36461 117.951 2.23636 118.05 2.1429C118.148 2.04945 118.279 1.99818 118.415 2.00005H120.842C120.973 2.00004 121.1 2.05181 121.193 2.14417C121.287 2.23653 121.34 2.36204 121.342 2.49354V4.70412C121.343 4.77272 121.33 4.8408 121.304 4.90412C121.277 4.96744 121.238 5.02466 121.189 5.07221C121.139 5.11976 121.081 5.15663 121.016 5.18053C120.952 5.20443 120.883 5.21485 120.815 5.21113ZM120.74 21.1922H118.415C118.278 21.1852 118.149 21.1244 118.057 21.0232C117.965 20.9219 117.916 20.7883 117.921 20.6514V7.57719C117.921 7.44631 117.973 7.32078 118.066 7.22824C118.159 7.13569 118.284 7.0837 118.415 7.0837H120.72C120.851 7.0854 120.976 7.13773 121.07 7.22972C121.163 7.32172 121.217 7.44624 121.22 7.57719V20.6581C121.213 20.7911 121.159 20.9171 121.067 21.0137C120.976 21.1103 120.853 21.1712 120.72 21.1854L120.74 21.1922Z" fill="white"/>
<path d="M130.118 21.3874C126.197 21.3874 124.142 18.7306 124.142 15.1545V13.1264C124.142 9.5503 126.17 6.89355 130.118 6.89355C134.066 6.89355 136.094 9.5503 136.094 13.1264V15.1545C136.094 18.7306 134.045 21.3874 130.118 21.3874ZM132.822 13.1332C132.822 11.1051 131.896 9.75311 130.118 9.75311C128.34 9.75311 127.447 11.1051 127.447 13.1332V15.1612C127.447 17.1893 128.367 18.5413 130.118 18.5413C131.868 18.5413 132.822 17.1893 132.822 15.1612V13.1332Z" fill="white"/>
<path d="M149.973 21.1914H147.695C147.557 21.1781 147.428 21.114 147.335 21.0116C147.241 20.9093 147.189 20.7758 147.188 20.6371V12.5249C147.188 10.3481 146.992 9.72618 145.065 9.72618C144.066 9.80184 143.098 10.1097 142.239 10.6253V20.6777C142.24 20.8158 142.189 20.9492 142.097 21.0517C142.004 21.1542 141.877 21.2185 141.739 21.232H139.441C139.303 21.2186 139.174 21.1546 139.081 21.0522C138.987 20.9498 138.935 20.8164 138.934 20.6777V7.57645C138.937 7.44434 138.992 7.31882 139.087 7.22664C139.181 7.13446 139.308 7.0829 139.441 7.08295H141.604C141.735 7.08294 141.862 7.13472 141.955 7.22708C142.049 7.31943 142.102 7.44495 142.104 7.57645V8.10374C143.284 7.26223 144.712 6.83875 146.16 6.90043C149.763 6.90043 150.493 9.32733 150.493 12.5046V20.6574C150.487 20.7947 150.431 20.9249 150.335 21.0234C150.239 21.1218 150.11 21.1816 149.973 21.1914Z" fill="white"/>
<path d="M173.586 21.1929H170.942C170.829 21.1811 170.721 21.1335 170.636 21.057C170.551 20.9805 170.493 20.8789 170.469 20.767L169.313 16.0349H163.56L162.404 20.767C162.38 20.8785 162.321 20.9794 162.236 21.0558C162.151 21.1322 162.044 21.1801 161.931 21.1929H159.281C159.167 21.1985 159.056 21.159 158.971 21.0831C158.887 21.0072 158.835 20.9009 158.828 20.7873C158.835 20.747 158.835 20.7059 158.828 20.6656L162.932 4.9685C163.533 2.64301 165.331 2.41992 166.406 2.41992C167.481 2.41992 169.286 2.64301 169.888 4.9685L173.984 20.6521V20.7738C173.983 20.881 173.941 20.9838 173.867 21.0615C173.793 21.1392 173.693 21.1861 173.586 21.1929ZM166.825 5.73916C166.751 5.44172 166.67 5.34032 166.427 5.34032C166.183 5.34032 166.102 5.44172 166.028 5.73916L164.229 13.1753H168.624L166.825 5.73916Z" fill="white"/>
<path d="M187.187 21.1914H184.888C184.751 21.178 184.623 21.1137 184.531 21.0111C184.438 20.9086 184.387 20.7752 184.388 20.6371V12.5249C184.388 10.3481 184.185 9.72618 182.259 9.72618C181.262 9.80287 180.297 10.1107 179.44 10.6253V20.6777C179.44 20.8168 179.388 20.9511 179.294 21.0538C179.2 21.1565 179.071 21.2201 178.932 21.232H176.641C176.502 21.2201 176.373 21.1565 176.279 21.0538C176.185 20.9511 176.133 20.8168 176.134 20.6777V7.57645C176.135 7.51075 176.148 7.44587 176.174 7.38552C176.2 7.32516 176.238 7.27051 176.285 7.22468C176.332 7.17886 176.388 7.14275 176.449 7.11844C176.51 7.09412 176.575 7.08206 176.641 7.08295H178.811C178.942 7.08294 179.069 7.13472 179.162 7.22708C179.256 7.31943 179.309 7.44495 179.311 7.57645V8.10374C180.491 7.26223 181.919 6.83875 183.367 6.90043C186.97 6.90043 187.7 9.32733 187.7 12.5046V20.6574C187.694 20.7936 187.639 20.923 187.544 21.0213C187.45 21.1196 187.323 21.1801 187.187 21.1914Z" fill="white"/>
<path d="M200.889 21.1916H198.76C198.628 21.1898 198.503 21.1363 198.411 21.0427C198.318 20.9491 198.266 20.8228 198.266 20.6913V20.2925C197.215 20.9805 195.993 21.3621 194.738 21.3944C192.662 21.3944 190.411 20.5967 190.411 17.2233V17.1355C190.411 14.2894 192.155 12.809 196.495 12.809H198.07V11.6732C198.07 10.0508 197.347 9.64519 195.853 9.64519C194.499 9.64022 193.145 9.70565 191.797 9.84124H191.675C191.418 9.84124 191.222 9.76687 191.222 9.42211V7.81995C191.222 7.54954 191.371 7.37377 191.696 7.29941C193.072 7.02848 194.471 6.89487 195.873 6.90057C199.422 6.90057 201.376 8.47568 201.376 11.6732V20.7116C201.371 20.8384 201.318 20.9586 201.228 21.0477C201.137 21.1368 201.016 21.1882 200.889 21.1916ZM198.084 14.9925H196.516C194.231 14.9925 193.744 15.7158 193.744 17.1152V17.2166C193.744 18.4402 194.298 18.7647 195.542 18.7647C196.437 18.7559 197.315 18.5235 198.097 18.0886L198.084 14.9925Z" fill="white"/>
<path d="M207.596 21.1919H205.264C205.195 21.1902 205.127 21.1747 205.065 21.1464C205.002 21.1182 204.946 21.0776 204.899 21.0272C204.853 20.9768 204.817 20.9175 204.793 20.8529C204.77 20.7883 204.76 20.7197 204.763 20.6511V2.65553C204.763 2.58984 204.776 2.52478 204.801 2.46409C204.827 2.4034 204.863 2.34825 204.91 2.3018C204.956 2.25534 205.012 2.2185 205.072 2.19336C205.133 2.16822 205.198 2.15527 205.264 2.15527H207.589C207.715 2.15527 207.835 2.20513 207.924 2.29388C208.013 2.38262 208.062 2.50298 208.062 2.62849V20.6579C208.067 20.7236 208.059 20.7896 208.038 20.852C208.017 20.9145 207.983 20.9722 207.94 21.0218C207.897 21.0714 207.844 21.112 207.785 21.1412C207.726 21.1704 207.662 21.1876 207.596 21.1919Z" fill="white"/>
<path d="M223.198 7.67212L219.02 22.2741C218.243 24.9782 217.324 26.2017 213.923 26.2017C213.03 26.1955 212.141 26.0866 211.273 25.8773C210.996 25.8029 210.746 25.7015 210.746 25.4514V23.8492C210.746 23.7895 210.758 23.7303 210.781 23.6753C210.804 23.6203 210.838 23.5704 210.881 23.5288C210.924 23.4872 210.975 23.4547 211.031 23.433C211.086 23.4114 211.146 23.4012 211.206 23.403H211.293C211.969 23.403 213.416 23.5518 214.119 23.5518C215.194 23.5518 215.742 23.2543 216.1 21.9496L216.296 21.1992H215.924C215.194 21.1992 214.295 21.0235 213.747 19.1239L210.448 7.67212C210.442 7.61373 210.442 7.55475 210.448 7.49636C210.448 7.24623 210.597 7.09751 210.922 7.09751H213.45C213.566 7.11153 213.675 7.16243 213.76 7.24273C213.845 7.32302 213.902 7.4285 213.923 7.54368L216.438 17.711C216.533 18.1369 216.634 18.2653 216.783 18.2653H217.013L219.717 7.51664C219.743 7.40083 219.806 7.29653 219.896 7.21877C219.986 7.14101 220.098 7.09381 220.217 7.08398H222.765C222.882 7.08387 222.994 7.12879 223.079 7.2094C223.163 7.29 223.213 7.40006 223.218 7.51664C223.222 7.5693 223.215 7.62219 223.198 7.67212Z" fill="white"/>
<path d="M230.033 21.3876C228.527 21.3839 227.027 21.2161 225.558 20.8874C225.424 20.8679 225.303 20.8012 225.215 20.6995C225.126 20.5977 225.078 20.4677 225.078 20.3331V18.812C225.079 18.7579 225.092 18.7046 225.114 18.6552C225.137 18.6058 225.168 18.5614 225.208 18.5243C225.247 18.4873 225.294 18.4584 225.345 18.4393C225.395 18.4202 225.449 18.4114 225.504 18.4132H225.605C226.808 18.5619 229.059 18.6836 229.803 18.6836C231.358 18.6836 231.581 18.1292 231.581 17.4803C231.581 17.0138 231.284 16.7096 230.472 16.2093L227.052 14.1069C226.434 13.7618 225.916 13.2631 225.548 12.6591C225.18 12.0551 224.973 11.3663 224.949 10.6592C224.949 8.15799 226.524 6.9006 229.681 6.9006C231.172 6.89362 232.659 7.06382 234.109 7.40761C234.238 7.43156 234.354 7.50039 234.437 7.60187C234.52 7.70334 234.564 7.83092 234.562 7.96194V9.40862C234.562 9.71283 234.413 9.88183 234.157 9.88183H234.062C232.694 9.70517 231.317 9.60587 229.938 9.58438C228.735 9.58438 228.208 9.86155 228.208 10.6322C228.208 11.0311 228.586 11.3082 229.208 11.6598L232.487 13.6878C234.582 14.9655 234.887 16.2161 234.887 17.487C234.934 19.657 233.339 21.3876 230.033 21.3876Z" fill="white"/>
<path d="M244.831 21.1915C244.269 21.2975 243.699 21.3562 243.128 21.3672C240.309 21.3672 239.153 20.7385 239.153 17.3922V9.55721L236.807 9.20568C236.679 9.1924 236.559 9.13543 236.468 9.04433C236.377 8.95324 236.32 8.83357 236.307 8.70543V7.60353C236.308 7.47139 236.362 7.34516 236.455 7.25173C236.549 7.15829 236.675 7.10502 236.807 7.10327H239.159V5.0279C239.173 4.89976 239.23 4.78009 239.321 4.689C239.412 4.5979 239.532 4.54093 239.66 4.52765L241.985 4.1288H242.127C242.222 4.11923 242.317 4.14711 242.391 4.20648C242.466 4.26584 242.514 4.35199 242.526 4.44653V7.08299H244.777C244.909 7.08298 245.035 7.13475 245.128 7.22711C245.222 7.31947 245.276 7.44498 245.277 7.57648V9.084C245.277 9.21667 245.225 9.34392 245.131 9.43773C245.037 9.53155 244.91 9.58426 244.777 9.58426H242.526V17.3855C242.526 18.6361 242.6 18.7916 243.499 18.7916H244.851C245.169 18.7916 245.372 18.9133 245.372 19.1634V20.7385C245.311 21.0089 245.162 21.1915 244.831 21.1915Z" fill="white"/>
<path d="M252.138 21.3877C250.633 21.3835 249.132 21.2158 247.663 20.8874C247.53 20.8692 247.408 20.8027 247.321 20.7004C247.234 20.5982 247.187 20.4675 247.19 20.3331V18.8121C247.192 18.7579 247.204 18.7046 247.226 18.6552C247.249 18.6059 247.281 18.5614 247.32 18.5244C247.36 18.4873 247.406 18.4584 247.457 18.4394C247.508 18.4203 247.562 18.4114 247.616 18.4132H247.711C248.914 18.5619 251.165 18.6836 251.915 18.6836C253.463 18.6836 253.693 18.1293 253.693 17.4803C253.693 17.0139 253.389 16.7096 252.585 16.2094L249.157 14.107C248.541 13.7605 248.025 13.2613 247.658 12.6575C247.291 12.0536 247.086 11.3655 247.062 10.6593C247.062 8.15803 248.63 6.90064 251.794 6.90064C253.285 6.8929 254.771 7.06311 256.222 7.40766C256.351 7.43032 256.468 7.49879 256.551 7.60056C256.634 7.70233 256.678 7.83062 256.674 7.96199V9.40867C256.674 9.71287 256.526 9.88188 256.276 9.88188H256.174C254.806 9.70498 253.43 9.60567 252.051 9.58443C250.847 9.58443 250.32 9.8616 250.32 10.6323C250.32 11.0311 250.698 11.3083 251.327 11.6598L254.599 13.6879C256.702 14.9655 256.999 16.2162 256.999 17.4871C257.04 19.6571 255.417 21.3877 252.138 21.3877Z" fill="white"/>
</svg>
